<?xml version="1.0" encoding="UTF-8"?>
<svg id="a" data-name="レイヤー 1" xmlns="http://www.w3.org/2000/svg" viewBox="0 0 811.9 811.9">
  <defs>
    <style>
      .b {
        fill: #ffb361;
        fill-rule: evenodd;
        stroke-width: 0px;
      }
    </style>
  </defs>
  <path class="b" d="m328.61,690.49c-106.8-29-189.6-116.6-211.67-226.09l59.29,29.62c35.44,92.31,124.98,157.92,229.72,157.92v159.96l-77.34-121.41h0Z"/>
  <path class="b" d="m651.93,405.96h159.96l-121.92,79.16c-29.51,105.94-116.74,187.9-225.6,209.83l29.62-59.27c92.32-35.45,157.93-124.98,157.93-229.72h0Z"/>
  <path class="b" d="m120.51,331.98c28.07-108.43,116.36-192.73,227-215.03l-29.62,59.27c-92.32,35.45-157.92,124.99-157.92,229.74H0l120.51-73.98h0Z"/>
  <path class="b" d="m479.11,120.31c108.82,27.85,193.48,116.29,215.83,227.19l-59.27-29.62c-35.45-92.31-124.99-157.92-229.73-157.92V0l73.17,120.31h0Z"/>
  <polygon class="b" points="439.8 372.09 625.59 405.96 439.8 439.81 405.94 625.6 372.09 439.81 186.3 405.96 372.09 372.09 405.94 186.31 439.8 372.09 439.8 372.09"/>
  <polygon class="b" points="526.36 526.36 441.04 467.36 445.09 445.11 467.34 441.05 526.36 526.36 526.36 526.36"/>
  <polygon class="b" points="366.79 445.11 370.84 467.36 285.53 526.36 344.54 441.05 366.79 445.11 366.79 445.11"/>
  <polygon class="b" points="467.34 370.86 526.36 285.54 441.04 344.56 445.09 366.79 467.34 370.86 467.34 370.86"/>
  <polygon class="b" points="370.84 344.56 366.79 366.79 344.54 370.86 285.53 285.54 370.84 344.56 370.84 344.56"/>
</svg>